<svg width="1146" height="771" viewBox="0 0 1146 771" fill="none" xmlns="http://www.w3.org/2000/svg">
<g clip-path="url(#clip0)">
<path opacity="0.1" d="M800 771C878.424 771 942 766.523 942 761C942 755.477 878.424 751 800 751C721.576 751 658 755.477 658 761C658 766.523 721.576 771 800 771Z" fill="#B6426B"/>
<path opacity="0.1" d="M1145.7 454.1C1145.68 492.877 1137.24 531.188 1120.97 566.389C1104.71 601.589 1081 632.841 1051.48 657.989C1021.96 683.136 987.339 701.58 950.001 712.048C912.663 722.516 873.499 724.758 835.21 718.62H410.5C394.096 720.871 377.558 722 361 722C349.113 722 337.37 721.433 325.77 720.3C236.517 711.634 153.695 670.026 93.4622 603.594C33.2297 537.162 -0.0914702 450.672 4.73649e-06 361C4.73649e-06 161.62 161.63 0 361 0C521.57 0 657.63 104.84 704.52 249.8C752.888 208.65 814.346 186.1 877.85 186.2C1025.76 186.2 1145.7 306.14 1145.7 454.1Z" fill="#B6426B"/>
<path opacity="0.1" d="M1042.79 665.17C1013.72 687.867 980.285 704.328 944.569 713.525C908.854 722.721 871.626 724.456 835.21 718.62H410.5C394.096 720.871 377.558 722 361 722C349.113 722 337.37 721.433 325.77 720.3C255.433 713.401 188.666 686.018 133.741 641.543C78.8151 597.067 38.1453 537.454 16.77 470.09C51.35 396.2 140.19 343.62 244.35 343.62C345.85 343.62 432.85 393.56 469.16 464.49C487.04 461.239 505.177 459.609 523.35 459.62C628.55 459.62 718.12 513.29 751.94 588.29C779.955 579.798 809.076 575.515 838.35 575.58C924.15 575.62 999.56 611.29 1042.79 665.17Z" fill="#B6426B"/>
<path d="M351.7 673.23C351.7 698.85 341.87 712.76 325.77 720.3C265.125 714.444 206.967 693.252 156.77 658.72C158.057 650.01 160.523 641.515 164.1 633.47L209.89 647.71L169.11 623.71C174.625 614.295 181.672 605.866 189.96 598.77L266.89 622.69L206.62 587.29C219.031 580.489 232.767 576.457 246.884 575.47C261.002 574.483 275.165 576.566 288.401 581.575C301.637 586.583 313.631 594.399 323.558 604.485C333.486 614.571 341.111 626.687 345.91 640L346.12 640.6C346.28 641.05 346.44 641.5 346.59 641.96C347.13 643.553 347.627 645.163 348.08 646.79C348.25 647.37 348.41 647.95 348.55 648.54C348.69 649.13 348.84 649.66 348.97 650.22C349.1 650.78 349.21 651.22 349.31 651.68C349.38 651.98 349.45 652.28 349.51 652.58C349.62 653.06 349.72 653.58 349.81 654.03C349.95 654.73 350.09 655.44 350.21 656.14C350.33 656.84 350.46 657.6 350.57 658.33C350.68 659.06 350.81 659.95 350.91 660.77C351.01 661.59 351.09 662.23 351.16 662.96C351.16 663.19 351.21 663.41 351.23 663.64C351.3 664.28 351.35 664.92 351.4 665.56C351.405 665.643 351.405 665.727 351.4 665.81C351.46 666.61 351.51 667.41 351.55 668.21C351.59 669.01 351.62 669.79 351.64 670.55C351.645 670.627 351.645 670.703 351.64 670.78C351.69 671.58 351.7 672.4 351.7 673.23Z" fill="#B6426B"/>
<path opacity="0.1" d="M351.7 673.23C351.7 698.85 341.87 712.76 325.77 720.3C286.552 716.523 248.224 706.306 212.33 690.06L213.97 688.97C221.38 684.06 229.04 679.04 237.76 677.37C245.43 675.9 253.34 677.14 261.13 676.7C274.691 675.87 287.457 670.02 296.94 660.29C302.51 654.53 306.94 647.46 313.59 643.06C320.81 638.32 329.97 637.3 338.53 638.48C341.017 638.843 343.481 639.347 345.91 639.99L346.12 640.59C346.28 641.04 346.44 641.49 346.59 641.95C347.13 643.543 347.627 645.153 348.08 646.78C348.25 647.36 348.41 647.94 348.55 648.53C348.69 649.12 348.84 649.65 348.97 650.21C349.1 650.77 349.21 651.21 349.31 651.67C349.38 651.97 349.45 652.27 349.51 652.57C349.62 653.05 349.72 653.57 349.81 654.02C349.95 654.72 350.09 655.43 350.21 656.13C350.33 656.83 350.46 657.59 350.57 658.32C350.68 659.05 350.81 659.94 350.91 660.76C351.01 661.58 351.09 662.22 351.16 662.95C351.16 663.18 351.21 663.4 351.23 663.63C351.3 664.27 351.35 664.91 351.4 665.55C351.405 665.633 351.405 665.717 351.4 665.8C351.46 666.6 351.51 667.4 351.55 668.2C351.59 669 351.62 669.78 351.64 670.54C351.645 670.617 351.645 670.693 351.64 670.77C351.69 671.58 351.7 672.4 351.7 673.23Z" fill="black"/>
<path d="M822 731.153C822.008 733.76 821.739 736.361 821.2 738.913C821.1 739.393 820.99 739.863 820.88 740.323C818.04 751.713 810.03 760.043 800.47 760.573C800.15 760.573 799.83 760.573 799.47 760.573C789.36 760.573 780.81 751.853 777.99 739.843C777.91 739.523 777.84 739.203 777.77 738.843C777.231 736.291 776.963 733.69 776.97 731.083C776.97 714.813 787.04 701.633 799.47 701.633C811.9 701.633 822 714.883 822 731.153Z" fill="#3F3D56"/>
<path opacity="0.1" d="M822 731.153C822.008 733.76 821.739 736.361 821.2 738.913C821.1 739.393 820.99 739.863 820.88 740.323C820.54 740.323 820.21 740.323 819.88 740.323C817.404 740.189 814.942 739.855 812.52 739.323C810.374 739.986 808.181 740.487 805.96 740.823C804.257 741.079 802.541 741.239 800.82 741.303C800.24 741.303 799.66 741.303 799.08 741.303C797.02 741.303 794.962 741.166 792.92 740.893C789.618 740.452 786.375 739.647 783.25 738.493C781.539 739.062 779.796 739.53 778.03 739.893C777.95 739.573 777.88 739.253 777.81 738.893C777.271 736.341 777.003 733.74 777.01 731.133C777.01 714.863 787.08 701.683 799.51 701.683C811.94 701.683 822 714.883 822 731.153Z" fill="black"/>
<path d="M870 676.293C870.01 669.133 868.331 662.072 865.1 655.683L838.64 663.913L861.87 650.263C857.975 644.633 852.866 639.949 846.919 636.559C840.972 633.168 834.339 631.157 827.51 630.673C826.423 629.024 825.231 627.447 823.94 625.953L785.94 637.783L817.11 619.453C811.148 614.876 804.149 611.841 796.734 610.614C789.318 609.386 781.715 610.006 774.596 612.418C767.477 614.829 761.062 618.958 755.92 624.439C750.777 629.92 747.064 636.585 745.11 643.843L777.66 681.313L742.35 655.773C733.406 662.117 727.038 671.463 724.407 682.109C721.777 692.754 723.058 703.991 728.019 713.771C732.979 723.551 741.288 731.223 751.431 735.39C761.574 739.557 772.877 739.941 783.28 736.473C792.69 739.932 802.973 740.216 812.56 737.283C819.243 738.746 826.169 738.692 832.829 737.126C839.489 735.56 845.713 732.521 851.044 728.233C856.375 723.945 860.677 718.517 863.634 712.347C866.59 706.178 868.127 699.424 868.13 692.583C868.13 691.583 868.13 690.583 868.03 689.583C869.339 685.274 870.003 680.796 870 676.293V676.293Z" fill="#B6426B"/>
<path opacity="0.1" d="M869.21 684.773C855.236 682.124 840.907 681.941 826.87 684.233C810.98 686.863 794.74 692.643 779.2 688.423C770.08 685.943 762.2 680.203 753.29 677.013C744.693 674.013 735.433 673.46 726.54 675.413C723.151 683.52 722.168 692.431 723.708 701.081C725.249 709.732 729.247 717.756 735.225 724.196C741.203 730.635 748.909 735.217 757.422 737.394C765.935 739.571 774.894 739.251 783.23 736.473C792.64 739.932 802.923 740.216 812.51 737.283C819.197 738.754 826.128 738.707 832.795 737.145C839.461 735.583 845.692 732.546 851.028 728.257C856.365 723.968 860.672 718.536 863.632 712.362C866.591 706.189 868.129 699.429 868.13 692.583C868.13 691.583 868.13 690.583 868.03 689.583C868.511 688.002 868.905 686.396 869.21 684.773Z" fill="black"/>
<path d="M713.52 250.42H709.24C707.975 250.42 706.95 251.445 706.95 252.71V321.15C706.95 322.415 707.975 323.44 709.24 323.44H713.52C714.785 323.44 715.81 322.415 715.81 321.15V252.71C715.81 251.445 714.785 250.42 713.52 250.42Z" fill="#3A3768"/>
<path d="M415.19 193.21H414.8C413.535 193.21 412.51 194.235 412.51 195.5V214.96C412.51 216.225 413.535 217.25 414.8 217.25H415.19C416.455 217.25 417.48 216.225 417.48 214.96V195.5C417.48 194.235 416.455 193.21 415.19 193.21Z" fill="#3A3768"/>
<path d="M415.64 237.23H414.62C413.355 237.23 412.33 238.255 412.33 239.52V276.78C412.33 278.045 413.355 279.07 414.62 279.07H415.64C416.905 279.07 417.93 278.045 417.93 276.78V239.52C417.93 238.255 416.905 237.23 415.64 237.23Z" fill="#3A3768"/>
<path d="M415.46 293.71H414.71C413.445 293.71 412.42 294.735 412.42 296V333.62C412.42 334.885 413.445 335.91 414.71 335.91H415.46C416.725 335.91 417.75 334.885 417.75 333.62V296C417.75 294.735 416.725 293.71 415.46 293.71Z" fill="#3A3768"/>
<path d="M672.74 113.77H454.32C432.786 113.77 415.33 131.226 415.33 152.76V677.17C415.33 698.704 432.786 716.16 454.32 716.16H672.74C694.274 716.16 711.73 698.704 711.73 677.17V152.76C711.73 131.226 694.274 113.77 672.74 113.77Z" fill="#3F3D56"/>
<path d="M572.46 131.76H538.81C536.673 131.76 534.94 133.493 534.94 135.63V136.29C534.94 138.427 536.673 140.16 538.81 140.16H572.46C574.597 140.16 576.33 138.427 576.33 136.29V135.63C576.33 133.493 574.597 131.76 572.46 131.76Z" fill="#E6E8EC"/>
<path d="M587.35 140.73C589.984 140.73 592.12 138.594 592.12 135.96C592.12 133.326 589.984 131.19 587.35 131.19C584.716 131.19 582.58 133.326 582.58 135.96C582.58 138.594 584.716 140.73 587.35 140.73Z" fill="#E6E8EC"/>
<path d="M669.85 129.46H635.95V133.55C635.95 138.69 633.908 143.619 630.274 147.254C626.639 150.888 621.71 152.93 616.57 152.93H508.39C503.25 152.93 498.321 150.888 494.686 147.254C491.052 143.619 489.01 138.69 489.01 133.55V129.46H457.17C454.079 129.46 451.019 130.069 448.163 131.252C445.308 132.435 442.713 134.169 440.528 136.355C438.343 138.541 436.61 141.136 435.428 143.992C434.246 146.848 433.639 149.909 433.64 153V676.93C433.639 680.021 434.246 683.082 435.428 685.938C436.61 688.794 438.343 691.389 440.528 693.575C442.713 695.761 445.308 697.495 448.163 698.678C451.019 699.861 454.079 700.47 457.17 700.47H669.85C676.093 700.47 682.081 697.99 686.495 693.575C690.91 689.161 693.39 683.173 693.39 676.93V153C693.39 146.757 690.91 140.769 686.495 136.355C682.081 131.94 676.093 129.46 669.85 129.46V129.46Z" fill="#B6426B"/>
<path opacity="0.1" d="M593.53 223.47H444.53V247.47H593.53V223.47Z" fill="black" stroke="#B6426B" stroke-miterlimit="10"/>
<path opacity="0.1" d="M480.53 387.47C498.203 387.47 512.53 373.143 512.53 355.47C512.53 337.797 498.203 323.47 480.53 323.47C462.857 323.47 448.53 337.797 448.53 355.47C448.53 373.143 462.857 387.47 480.53 387.47Z" fill="black" stroke="#B6426B" stroke-miterlimit="10"/>
<path d="M471.53 349.47V361.47H479.53L489.53 371.92V339.01L479.53 349.47H471.53Z" fill="white"/>
<path opacity="0.1" d="M565.53 387.47C583.203 387.47 597.53 373.143 597.53 355.47C597.53 337.797 583.203 323.47 565.53 323.47C547.857 323.47 533.53 337.797 533.53 355.47C533.53 373.143 547.857 387.47 565.53 387.47Z" fill="black" stroke="#B6426B" stroke-miterlimit="10"/>
<path d="M565.53 368.83C564.774 368.826 564.033 369.047 563.402 369.464C562.771 369.881 562.279 370.477 561.987 371.174C561.694 371.872 561.616 372.641 561.761 373.383C561.906 374.125 562.268 374.808 562.802 375.344C563.335 375.88 564.016 376.246 564.757 376.395C565.499 376.544 566.268 376.47 566.967 376.181C567.666 375.893 568.264 375.403 568.685 374.774C569.105 374.146 569.33 373.406 569.33 372.65C569.33 371.64 568.93 370.672 568.218 369.956C567.506 369.24 566.54 368.835 565.53 368.83V368.83ZM554.33 334.47C553.573 334.464 552.832 334.683 552.2 335.099C551.567 335.515 551.073 336.11 550.779 336.807C550.486 337.505 550.406 338.274 550.55 339.017C550.694 339.76 551.055 340.443 551.588 340.98C552.121 341.518 552.802 341.884 553.544 342.034C554.285 342.184 555.055 342.11 555.755 341.822C556.455 341.534 557.053 341.044 557.474 340.415C557.895 339.787 558.12 339.047 558.12 338.29C558.12 337.282 557.722 336.315 557.012 335.599C556.302 334.884 555.338 334.478 554.33 334.47V334.47ZM554.33 345.93C553.573 345.924 552.831 346.143 552.199 346.56C551.566 346.976 551.072 347.572 550.779 348.27C550.485 348.968 550.406 349.737 550.55 350.48C550.695 351.224 551.058 351.907 551.592 352.444C552.126 352.981 552.807 353.347 553.55 353.495C554.292 353.644 555.062 353.569 555.762 353.279C556.461 352.989 557.059 352.498 557.479 351.868C557.899 351.238 558.122 350.497 558.12 349.74C558.12 348.733 557.721 347.767 557.011 347.053C556.301 346.339 555.337 345.935 554.33 345.93V345.93ZM554.33 357.38C553.573 357.374 552.832 357.593 552.2 358.009C551.567 358.425 551.073 359.02 550.779 359.717C550.486 360.415 550.406 361.184 550.55 361.927C550.694 362.67 551.055 363.353 551.588 363.89C552.121 364.428 552.802 364.794 553.544 364.944C554.285 365.094 555.055 365.02 555.755 364.732C556.455 364.444 557.053 363.954 557.474 363.325C557.895 362.697 558.12 361.957 558.12 361.2C558.12 360.192 557.722 359.225 557.012 358.509C556.302 357.794 555.338 357.388 554.33 357.38V357.38ZM576.73 342.11C577.486 342.114 578.227 341.893 578.858 341.476C579.489 341.059 579.981 340.463 580.273 339.766C580.566 339.068 580.644 338.299 580.499 337.557C580.354 336.815 579.992 336.132 579.458 335.596C578.925 335.06 578.244 334.694 577.503 334.545C576.761 334.396 575.992 334.47 575.293 334.759C574.594 335.047 573.996 335.537 573.575 336.166C573.155 336.794 572.93 337.534 572.93 338.29C572.929 338.79 573.026 339.286 573.216 339.749C573.406 340.212 573.686 340.632 574.039 340.987C574.392 341.342 574.811 341.623 575.273 341.816C575.734 342.009 576.23 342.109 576.73 342.11V342.11ZM565.53 357.38C564.774 357.376 564.033 357.597 563.402 358.014C562.771 358.431 562.279 359.027 561.987 359.724C561.694 360.422 561.616 361.191 561.761 361.933C561.906 362.675 562.268 363.358 562.802 363.894C563.335 364.43 564.016 364.796 564.757 364.945C565.499 365.094 566.268 365.02 566.967 364.731C567.666 364.443 568.264 363.953 568.685 363.324C569.105 362.696 569.33 361.956 569.33 361.2C569.33 360.19 568.93 359.222 568.218 358.506C567.506 357.79 566.54 357.385 565.53 357.38V357.38ZM576.73 357.38C575.974 357.376 575.233 357.597 574.602 358.014C573.971 358.431 573.479 359.027 573.187 359.724C572.894 360.422 572.816 361.191 572.961 361.933C573.106 362.675 573.468 363.358 574.002 363.894C574.535 364.43 575.216 364.796 575.957 364.945C576.699 365.094 577.468 365.02 578.167 364.731C578.866 364.443 579.464 363.953 579.885 363.324C580.305 362.696 580.53 361.956 580.53 361.2C580.53 360.19 580.13 359.222 579.418 358.506C578.706 357.79 577.74 357.385 576.73 357.38V357.38ZM576.73 345.93C575.973 345.926 575.232 346.147 574.601 346.565C573.97 346.983 573.477 347.578 573.186 348.277C572.894 348.975 572.816 349.744 572.962 350.487C573.108 351.229 573.471 351.912 574.005 352.448C574.54 352.983 575.221 353.348 575.964 353.496C576.706 353.644 577.475 353.568 578.174 353.278C578.873 352.988 579.47 352.497 579.89 351.867C580.309 351.237 580.532 350.497 580.53 349.74C580.53 348.731 580.13 347.764 579.418 347.049C578.705 346.335 577.739 345.933 576.73 345.93V345.93ZM565.53 345.93C564.773 345.926 564.032 346.147 563.401 346.565C562.77 346.983 562.278 347.578 561.986 348.277C561.694 348.975 561.616 349.744 561.762 350.487C561.908 351.229 562.271 351.912 562.805 352.448C563.34 352.983 564.021 353.348 564.764 353.496C565.506 353.644 566.275 353.568 566.974 353.278C567.673 352.988 568.27 352.497 568.69 351.867C569.109 351.237 569.332 350.497 569.33 349.74C569.33 348.731 568.93 347.764 568.218 347.049C567.505 346.335 566.539 345.933 565.53 345.93V345.93ZM565.53 334.47C564.774 334.466 564.033 334.687 563.402 335.104C562.771 335.521 562.279 336.117 561.987 336.814C561.694 337.512 561.616 338.281 561.761 339.023C561.906 339.765 562.268 340.448 562.802 340.984C563.335 341.52 564.016 341.886 564.757 342.035C565.499 342.184 566.268 342.11 566.967 341.821C567.666 341.533 568.264 341.043 568.685 340.414C569.105 339.786 569.33 339.046 569.33 338.29C569.33 337.28 568.93 336.312 568.218 335.596C567.506 334.88 566.54 334.475 565.53 334.47V334.47Z" fill="white"/>
<g opacity="0.4">
<path opacity="0.1" d="M480.53 483.47C498.203 483.47 512.53 469.143 512.53 451.47C512.53 433.797 498.203 419.47 480.53 419.47C462.857 419.47 448.53 433.797 448.53 451.47C448.53 469.143 462.857 483.47 480.53 483.47Z" fill="black" stroke="#B6426B" stroke-miterlimit="10"/>
<path opacity="0.4" d="M495.53 453.47H482.53V466.47H478.53V453.47H465.53V449.47H478.53V436.47H482.53V449.47H495.53V453.47Z" fill="white"/>
</g>
<path opacity="0.1" d="M650.53 387.47C668.203 387.47 682.53 373.143 682.53 355.47C682.53 337.797 668.203 323.47 650.53 323.47C632.857 323.47 618.53 337.797 618.53 355.47C618.53 373.143 632.857 387.47 650.53 387.47Z" fill="black" stroke="#B6426B" stroke-miterlimit="10"/>
<path d="M650.53 335.96C648.135 335.991 645.769 336.494 643.568 337.44C641.367 338.386 639.374 339.756 637.702 341.472C636.031 343.188 634.714 345.216 633.826 347.441C632.939 349.666 632.498 352.045 632.53 354.44V368.81C632.519 369.608 632.666 370.401 632.962 371.143C633.258 371.885 633.697 372.561 634.254 373.133C634.811 373.705 635.476 374.161 636.209 374.477C636.943 374.792 637.732 374.96 638.53 374.97H644.53V358.46H636.53V354.46C636.53 350.747 638.005 347.186 640.631 344.561C643.256 341.935 646.817 340.46 650.53 340.46C654.243 340.46 657.804 341.935 660.429 344.561C663.055 347.186 664.53 350.747 664.53 354.46V358.46H656.53V374.96H662.53C663.329 374.951 664.118 374.784 664.852 374.469C665.587 374.155 666.251 373.698 666.809 373.126C667.366 372.553 667.805 371.877 668.101 371.134C668.396 370.392 668.542 369.599 668.53 368.8V354.44C668.562 352.045 668.121 349.666 667.234 347.441C666.346 345.216 665.029 343.188 663.358 341.472C661.686 339.756 659.693 338.386 657.492 337.44C655.291 336.494 652.925 335.991 650.53 335.96Z" fill="white"/>
<g opacity="0.4">
<path opacity="0.1" d="M565.53 483.47C583.203 483.47 597.53 469.143 597.53 451.47C597.53 433.797 583.203 419.47 565.53 419.47C547.857 419.47 533.53 433.797 533.53 451.47C533.53 469.143 547.857 483.47 565.53 483.47Z" fill="black" stroke="#B6426B" stroke-miterlimit="10"/>
<path opacity="0.4" d="M577.53 448.04V440.04C577.526 439.737 577.462 439.437 577.343 439.158C577.223 438.88 577.05 438.627 576.832 438.415C576.615 438.204 576.358 438.037 576.076 437.924C575.795 437.812 575.493 437.756 575.19 437.76H546.85C546.239 437.755 545.651 437.992 545.214 438.419C544.777 438.846 544.528 439.429 544.52 440.04V462.85C544.53 463.46 544.781 464.041 545.217 464.468C545.653 464.895 546.24 465.133 546.85 465.13H575.18C575.792 465.135 576.381 464.899 576.819 464.472C577.258 464.045 577.509 463.462 577.52 462.85V454.85L586.52 463.97V438.92L577.53 448.04Z" fill="white"/>
</g>
<path opacity="0.1" d="M650.53 483.47C668.203 483.47 682.53 469.143 682.53 451.47C682.53 433.797 668.203 419.47 650.53 419.47C632.857 419.47 618.53 433.797 618.53 451.47C618.53 469.143 632.857 483.47 650.53 483.47Z" fill="black" stroke="#B6426B" stroke-miterlimit="10"/>
<path d="M648.95 459.71C647.229 460.686 645.284 461.2 643.305 461.2C641.326 461.2 639.381 460.686 637.66 459.71C633.24 461.06 630.53 465.53 629.53 469.46H657.08C656.08 465.53 653.38 461.06 648.95 459.71ZM643.31 438.71C641.345 438.708 639.424 439.289 637.789 440.379C636.155 441.47 634.881 443.02 634.128 444.835C633.375 446.65 633.177 448.648 633.56 450.575C633.943 452.502 634.889 454.272 636.278 455.662C637.668 457.051 639.438 457.997 641.365 458.38C643.292 458.763 645.29 458.565 647.105 457.812C648.919 457.059 650.47 455.785 651.561 454.151C652.651 452.516 653.232 450.595 653.23 448.63C653.23 445.999 652.185 443.476 650.324 441.616C648.464 439.755 645.941 438.71 643.31 438.71V438.71ZM643.31 456.19C641.817 456.162 640.365 455.699 639.132 454.857C637.899 454.015 636.939 452.83 636.37 451.45H650.24C649.673 452.831 648.715 454.016 647.484 454.86C646.253 455.704 644.802 456.17 643.31 456.2V456.19Z" fill="white"/>
<path d="M656.77 463.46H671.53C671.07 461.384 670.079 459.464 668.654 457.886C667.229 456.309 665.418 455.128 663.4 454.46C661.677 455.436 659.73 455.949 657.75 455.95C656.421 455.962 655.101 455.739 653.85 455.29C653.153 456.514 652.269 457.62 651.23 458.57C653.518 459.618 655.446 461.32 656.77 463.46V463.46ZM655.27 446.21H664.69C664.118 447.587 663.157 448.767 661.924 449.605C660.691 450.443 659.241 450.904 657.75 450.93C656.939 450.924 656.134 450.782 655.37 450.51C655.247 451.312 655.042 452.099 654.76 452.86C656.126 453.296 657.57 453.431 658.994 453.255C660.417 453.08 661.785 452.598 663.005 451.844C664.224 451.089 665.265 450.079 666.057 448.884C666.849 447.688 667.373 446.335 667.592 444.918C667.811 443.501 667.721 442.053 667.327 440.674C666.934 439.296 666.246 438.018 665.312 436.93C664.378 435.842 663.219 434.97 661.915 434.373C660.612 433.775 659.194 433.467 657.76 433.47C656.091 433.472 654.449 433.895 652.986 434.699C651.524 435.503 650.287 436.662 649.39 438.07C650.889 438.934 652.189 440.107 653.202 441.51C654.216 442.913 654.921 444.515 655.27 446.21V446.21Z" fill="white"/>
<path d="M565.53 611.47C583.203 611.47 597.53 597.143 597.53 579.47C597.53 561.797 583.203 547.47 565.53 547.47C547.857 547.47 533.53 561.797 533.53 579.47C533.53 597.143 547.857 611.47 565.53 611.47Z" fill="#FF6F61"/>
<path d="M549.1 587.37C550.85 585.717 552.843 584.341 555.01 583.29C555.345 583.141 555.629 582.896 555.827 582.587C556.024 582.278 556.126 581.917 556.12 581.55L556.29 575.33C562.405 573.512 568.941 573.687 574.95 575.83L574.78 582.05C574.775 582.411 574.865 582.767 575.04 583.083C575.216 583.399 575.471 583.663 575.78 583.85C577.952 584.981 579.92 586.468 581.6 588.25C581.78 588.441 581.997 588.595 582.237 588.703C582.477 588.81 582.736 588.869 582.998 588.877C583.261 588.884 583.523 588.84 583.769 588.746C584.014 588.652 584.239 588.511 584.43 588.33L589.51 583.51C589.893 583.146 590.117 582.645 590.132 582.116C590.147 581.588 589.952 581.075 589.59 580.69C586.519 577.448 582.84 574.843 578.762 573.023C574.684 571.203 570.288 570.204 565.824 570.083C561.36 569.962 556.917 570.722 552.746 572.319C548.576 573.916 544.761 576.319 541.52 579.39C541.329 579.571 541.176 579.788 541.07 580.028C540.963 580.269 540.905 580.528 540.898 580.79C540.892 581.053 540.937 581.315 541.032 581.56C541.126 581.805 541.269 582.03 541.45 582.22L546.26 587.3C546.441 587.491 546.658 587.644 546.898 587.75C547.139 587.857 547.398 587.915 547.66 587.922C547.923 587.928 548.185 587.883 548.43 587.788C548.675 587.693 548.9 587.551 549.09 587.37H549.1Z" fill="white"/>
<path opacity="0.1" d="M654.53 268.47C668.337 268.47 679.53 257.277 679.53 243.47C679.53 229.663 668.337 218.47 654.53 218.47C640.723 218.47 629.53 229.663 629.53 243.47C629.53 257.277 640.723 268.47 654.53 268.47Z" fill="black" stroke="#B6426B" stroke-miterlimit="10"/>
<path d="M660.18 249.08C658.457 250.056 656.51 250.57 654.53 250.57C652.55 250.57 650.603 250.056 648.88 249.08C644.46 250.43 641.75 254.9 640.75 258.84H668.31C667.31 254.9 664.6 250.43 660.18 249.08ZM654.53 228.08C652.566 228.078 650.645 228.659 649.01 229.749C647.376 230.839 646.102 232.389 645.349 234.203C644.596 236.017 644.398 238.014 644.78 239.941C645.162 241.868 646.107 243.638 647.495 245.028C648.883 246.418 650.653 247.365 652.579 247.748C654.506 248.132 656.503 247.936 658.318 247.185C660.133 246.434 661.684 245.161 662.776 243.528C663.867 241.895 664.45 239.974 664.45 238.01C664.447 235.379 663.402 232.856 661.542 230.995C659.683 229.134 657.161 228.085 654.53 228.08ZM654.53 245.57C653.038 245.54 651.587 245.075 650.354 244.234C649.122 243.392 648.161 242.209 647.59 240.83H661.47C660.898 242.209 659.938 243.393 658.706 244.236C657.474 245.08 656.023 245.546 654.53 245.58V245.57Z" fill="white"/>
<path opacity="0.1" d="M404.58 66.39C402.25 65.04 399.1 66.33 397.5 68.5C395.9 70.67 395.5 73.5 395.05 76.13C394.16 82.04 393.51 88.83 397.5 93.29C390.98 73.52 372.23 58.37 351.5 56.16" stroke="#B6426B" stroke-width="3" stroke-miterlimit="10"/>
<path opacity="0.1" d="M808.61 392.64C807.11 391.77 805.09 392.64 804.06 394C803.147 395.483 802.605 397.163 802.48 398.9C801.91 402.71 801.48 407.07 804.06 409.9C801.864 403.553 797.93 397.951 792.705 393.731C787.481 389.511 781.176 386.843 774.51 386.03" stroke="#B6426B" stroke-width="3" stroke-miterlimit="10"/>
<path opacity="0.1" d="M299.11 263.36C297.61 262.5 295.59 263.36 294.56 264.72C293.646 266.206 293.104 267.89 292.98 269.63C292.41 273.43 291.98 277.79 294.56 280.63C292.362 274.285 288.427 268.683 283.203 264.464C277.979 260.244 271.676 257.575 265.01 256.76" stroke="#B6426B" stroke-width="3" stroke-miterlimit="10"/>
</g>
<defs>
<clipPath id="clip0">
<rect width="1145.7" height="770.58" fill="white"/>
</clipPath>
</defs>
</svg>
