<svg width="1146" height="818" viewBox="0 0 1146 818" fill="none" xmlns="http://www.w3.org/2000/svg">
<g clip-path="url(#clip0)">
<path opacity="0.1" d="M1145.7 454.1C1145.68 492.877 1137.24 531.188 1120.97 566.389C1104.71 601.589 1081 632.842 1051.48 657.989C1021.96 683.136 987.339 701.58 950.001 712.048C912.663 722.516 873.499 724.758 835.21 718.62H410.5C394.096 720.871 377.558 722 361 722C199.65 722 63 616.14 16.78 470.09C5.62438 434.803 -0.035171 398.009 -2.03739e-05 361C-2.03739e-05 161.62 161.63 0 361 0C521.57 0 657.63 104.81 704.52 249.81C752.887 208.657 814.345 186.102 877.85 186.2C1025.76 186.2 1145.7 306.14 1145.7 454.1Z" fill="#B6426B"/>
<path opacity="0.1" d="M1042.79 665.17C1013.72 687.867 980.285 704.328 944.569 713.525C908.854 722.721 871.626 724.456 835.21 718.62H410.5C394.096 720.871 377.558 722 361 722C199.65 722 63 616.14 16.78 470.09C51.35 396.2 140.19 343.62 244.35 343.62C345.85 343.62 432.8 393.56 469.16 464.49C487.04 461.239 505.177 459.609 523.35 459.62C628.55 459.62 718.12 513.27 751.94 588.33C779.955 579.839 809.076 575.555 838.35 575.62C924.15 575.62 999.56 611.3 1042.79 665.17Z" fill="#B6426B"/>
<path d="M749.35 317.62H275.35V354.62H749.35V317.62Z" fill="white"/>
<path d="M749.35 397.62H275.35V434.62H749.35V397.62Z" fill="white"/>
<path d="M749.35 477.62H275.35V514.62H749.35V477.62Z" fill="white"/>
<path opacity="0.1" d="M573.35 817.62C855.015 817.62 1083.35 806.203 1083.35 792.12C1083.35 778.037 855.015 766.62 573.35 766.62C291.685 766.62 63.35 778.037 63.35 792.12C63.35 806.203 291.685 817.62 573.35 817.62Z" fill="#B6426B"/>
<path opacity="0.1" d="M908.37 249.47C907.508 248.237 907.034 246.774 907.01 245.27C907.01 236.16 925.59 228.77 948.51 228.77C971.43 228.77 990.01 236.16 990.01 245.27C989.965 246.979 989.361 248.627 988.29 249.96C1013.81 252.8 1031.01 258.14 1031.01 264.27C1031.01 273.38 992.95 280.77 946.01 280.77C899.07 280.77 861.01 273.38 861.01 264.27C861.01 257.81 880.31 252.17 908.37 249.47Z" fill="#B6426B"/>
<path opacity="0.1" d="M759.3 74.4501C758.6 73.4411 758.214 72.2478 758.19 71.0201C758.19 63.5801 773.35 57.5601 792.04 57.5601C810.73 57.5601 825.9 63.5601 825.9 71.0201C825.866 72.411 825.378 73.7527 824.51 74.8401C845.32 77.1701 859.35 81.5201 859.35 86.5201C859.35 93.9501 828.35 99.9801 790.01 99.9801C751.67 99.9801 720.66 93.9801 720.66 86.5201C720.66 81.2201 736.41 76.6501 759.3 74.4501Z" fill="#B6426B"/>
<path opacity="0.1" d="M305.62 139.06C304.509 138.047 303.728 136.723 303.38 135.26C301.38 126.36 317.92 115.11 340.29 110.13C362.66 105.15 382.41 108.31 384.39 117.21C384.719 118.887 384.49 120.625 383.74 122.16C409.26 119.39 427.21 120.86 428.54 126.84C430.54 135.73 394.98 151.22 349.16 161.42C303.34 171.62 264.59 172.7 262.61 163.8C261.2 157.47 278.85 147.81 305.62 139.06Z" fill="#B6426B"/>
<path opacity="0.1" d="M204.58 130.62C202.25 129.27 199.1 130.56 197.5 132.73C195.9 134.9 195.45 137.73 195.05 140.36C194.16 146.27 193.51 153.06 197.5 157.52C190.98 137.75 172.23 122.6 151.5 120.39" stroke="#B6426B" stroke-width="3" stroke-miterlimit="10"/>
<path opacity="0.1" d="M407.61 223.87C406.11 223 404.09 223.87 403.06 225.23C402.147 226.712 401.605 228.393 401.48 230.13C400.91 233.94 400.48 238.3 403.06 241.13C400.864 234.783 396.93 229.181 391.705 224.961C386.481 220.741 380.177 218.072 373.51 217.26" stroke="#B6426B" stroke-width="3" stroke-miterlimit="10"/>
<path opacity="0.1" d="M738.11 164.59C736.61 163.73 734.59 164.59 733.56 165.95C732.646 167.436 732.104 169.12 731.98 170.86C731.41 174.66 730.98 179.02 733.56 181.86C731.362 175.515 727.427 169.914 722.203 165.694C716.979 161.474 710.676 158.805 704.01 157.99" stroke="#B6426B" stroke-width="3" stroke-miterlimit="10"/>
<path d="M204.5 767.05C204.508 769.658 204.239 772.259 203.7 774.81C203.6 775.29 203.49 775.81 203.38 776.22C200.54 787.61 192.53 795.94 182.97 796.47C182.65 796.47 182.33 796.47 181.97 796.47C171.86 796.47 163.31 787.75 160.49 775.74C160.41 775.42 160.34 775.1 160.27 774.74C159.731 772.189 159.462 769.588 159.47 766.98C159.47 750.71 169.54 737.53 181.97 737.53C194.4 737.53 204.5 750.81 204.5 767.05Z" fill="#3F3D56"/>
<path opacity="0.1" d="M204.5 767.05C204.508 769.658 204.239 772.259 203.7 774.81C203.6 775.29 203.49 775.81 203.38 776.22C203.04 776.22 202.71 776.22 202.38 776.22C199.904 776.087 197.442 775.752 195.02 775.22C192.874 775.883 190.681 776.385 188.46 776.72C186.757 776.976 185.041 777.137 183.32 777.2H181.58C179.52 777.2 177.462 777.063 175.42 776.79C172.118 776.349 168.875 775.544 165.75 774.39C164.039 774.96 162.296 775.427 160.53 775.79C160.45 775.47 160.38 775.15 160.31 774.79C159.771 772.239 159.502 769.638 159.51 767.03C159.51 750.76 169.58 737.58 182.01 737.58C194.44 737.58 204.5 750.81 204.5 767.05Z" fill="black"/>
<path d="M252.5 712.19C252.509 705.03 250.831 697.969 247.6 691.58L221.14 699.81L244.37 686.15C240.473 680.523 235.363 675.843 229.416 672.454C223.469 669.065 216.837 667.054 210.01 666.57C208.923 664.921 207.731 663.344 206.44 661.85L168.44 673.68L199.61 655.35C193.647 650.774 186.649 647.738 179.233 646.511C171.818 645.284 164.215 645.904 157.096 648.315C149.977 650.727 143.562 654.856 138.419 660.337C133.276 665.818 129.564 672.482 127.61 679.74L160.16 717.21L124.85 691.67C115.905 698.014 109.538 707.36 106.907 718.006C104.277 728.652 105.558 739.888 110.518 749.668C115.479 759.448 123.787 767.121 133.931 771.288C144.074 775.455 155.377 775.839 165.78 772.37C175.19 775.829 185.473 776.114 195.06 773.18C201.743 774.651 208.671 774.605 215.335 773.045C221.998 771.485 228.227 768.451 233.563 764.167C238.899 759.882 243.206 754.456 246.169 748.287C249.131 742.118 250.672 735.363 250.68 728.52C250.68 727.52 250.68 726.52 250.58 725.52C251.876 721.196 252.523 716.704 252.5 712.19V712.19Z" fill="#B6426B"/>
<path opacity="0.1" d="M251.71 720.67C237.736 718.021 223.407 717.839 209.37 720.13C193.48 722.76 177.24 728.54 161.7 724.32C152.58 721.84 144.7 716.1 135.79 712.91C127.193 709.911 117.933 709.357 109.04 711.31C105.651 719.417 104.668 728.328 106.208 736.979C107.748 745.629 111.747 753.654 117.725 760.093C123.703 766.532 131.409 771.114 139.922 773.291C148.435 775.468 157.394 775.148 165.73 772.37C175.14 775.829 185.423 776.113 195.01 773.18C201.693 774.651 208.622 774.605 215.285 773.045C221.948 771.485 228.177 768.451 233.513 764.167C238.849 759.882 243.156 754.456 246.119 748.287C249.081 742.118 250.623 735.363 250.63 728.52C250.63 727.52 250.63 726.52 250.53 725.52C251.012 723.926 251.406 722.307 251.71 720.67V720.67Z" fill="black"/>
<path d="M1013.85 716.9L1054.63 692.9C1049.12 683.466 1042.07 675.017 1033.78 667.9L956.85 691.9L1017.13 656.46C1002.2 648.283 985.403 644.135 968.386 644.425C951.368 644.714 934.719 649.43 920.078 658.109C905.437 666.787 893.308 679.13 884.887 693.92C876.466 708.711 872.041 725.44 872.05 742.46C872.05 796.58 915.93 798.46 970.05 798.46C1024.17 798.46 1068.05 796.58 1068.05 742.46C1068.07 728.764 1065.2 715.217 1059.64 702.7L1013.85 716.9Z" fill="#B6426B"/>
<path opacity="0.1" d="M1024.18 769.51C1020.02 765 1014.85 761.51 1009.73 758.16C1002.32 753.25 994.66 748.23 985.94 746.56C978.27 745.09 970.36 746.33 962.57 745.88C949.008 745.055 936.24 739.204 926.76 729.47C921.19 723.71 916.81 716.64 910.11 712.24C902.89 707.5 893.73 706.48 885.17 707.66C882.683 708.023 880.219 708.527 877.79 709.17C873.946 719.834 871.987 731.085 872 742.42C872 796.54 915.88 798.42 970 798.42C996.26 798.42 1020.11 797.98 1037.71 791.34L1034.77 785.84C1031.71 780.1 1028.59 774.3 1024.18 769.51Z" fill="black"/>
</g>
<defs>
<clipPath id="clip0">
<rect width="1145.7" height="817.62" fill="white"/>
</clipPath>
</defs>
</svg>
