<svg width="1100" height="726" viewBox="0 0 1100 726" fill="none" xmlns="http://www.w3.org/2000/svg">
<g clip-path="url(#clip0)">
<path opacity="0.1" d="M985.58 392.72C997.526 392.72 1007.21 383.036 1007.21 371.09C1007.21 359.144 997.526 349.46 985.58 349.46C973.634 349.46 963.95 359.144 963.95 371.09C963.95 383.036 973.634 392.72 985.58 392.72Z" fill="#B6426B"/>
<path opacity="0.1" d="M1062.95 310.9C1082.97 310.9 1099.2 294.67 1099.2 274.65C1099.2 254.63 1082.97 238.4 1062.95 238.4C1042.93 238.4 1026.7 254.63 1026.7 274.65C1026.7 294.67 1042.93 310.9 1062.95 310.9Z" fill="#B6426B"/>
<path opacity="0.1" d="M455.32 49.41C467.266 49.41 476.95 39.7259 476.95 27.78C476.95 15.8341 467.266 6.14999 455.32 6.14999C443.374 6.14999 433.69 15.8341 433.69 27.78C433.69 39.7259 443.374 49.41 455.32 49.41Z" fill="#B6426B"/>
<path opacity="0.1" d="M703.43 74.27C715.376 74.27 725.06 64.5859 725.06 52.64C725.06 40.6941 715.376 31.01 703.43 31.01C691.484 31.01 681.8 40.6941 681.8 52.64C681.8 64.5859 691.484 74.27 703.43 74.27Z" fill="#B6426B"/>
<path opacity="0.1" d="M36.25 362.47C56.2703 362.47 72.5 346.24 72.5 326.22C72.5 306.2 56.2703 289.97 36.25 289.97C16.2297 289.97 0 306.2 0 326.22C0 346.24 16.2297 362.47 36.25 362.47Z" fill="#B6426B"/>
<path opacity="0.1" d="M608.11 119.66C543.39 117.25 481.75 94.81 422.89 70.25C364.03 45.69 305.72 18.5 242.6 5.48999C201.97 -2.88001 155.51 -4.07 122.77 19.33C91.22 41.89 81.04 80.72 75.6 116.78C71.48 143.92 69.06 172.48 80.34 197.88C88.17 215.52 102.08 230.34 111.7 247.23C145.17 306.01 121.51 378.5 85.24 435.89C68.24 462.81 48.5 488.49 35.37 517.15C22.24 545.81 16.14 578.65 27.6 607.89C38.98 636.89 66.11 658.63 95.5 673.89C155.19 704.98 225.5 713.89 294.11 718.89C445.93 730.05 598.57 725.22 750.8 720.38C807.13 718.59 863.72 716.77 919.14 707.38C949.92 702.18 981.69 693.93 1004.03 674.02C1032.4 648.75 1039.43 605.95 1020.42 574.26C988.54 521.1 900.42 507.89 878.11 450.84C865.85 419.44 878.44 384.46 896.27 355.34C934.5 292.86 998.6 238.05 1001.97 166.63C1004.29 117.63 973.48 68.47 925.84 45.26C875.9 20.93 806.66 23.99 769.84 64.26C731.92 105.89 665.25 121.8 608.11 119.66Z" fill="#B6426B"/>
<path d="M881.65 404.39L877.71 409.65C877.342 410.092 877.033 410.579 876.79 411.1C876.19 412.48 876.52 414.1 876.2 415.56C875.959 416.505 875.571 417.406 875.05 418.23C873.567 420.835 871.896 423.328 870.05 425.69C869.19 426.881 868.139 427.921 866.94 428.77C866.333 429.186 865.644 429.467 864.92 429.594C864.196 429.722 863.452 429.693 862.74 429.51C863.337 429.744 863.828 430.189 864.12 430.76C865.519 433.815 865.87 437.245 865.12 440.52C864.938 441.641 864.566 442.724 864.02 443.72C863.468 444.719 862.578 445.488 861.51 445.89C861.578 446.387 861.747 446.866 862.007 447.296C862.266 447.726 862.61 448.099 863.018 448.391C863.426 448.684 863.889 448.891 864.379 448.999C864.87 449.107 865.377 449.114 865.87 449.02C866.645 448.783 867.375 448.418 868.03 447.94L874.36 443.84C875.421 443.214 876.411 442.473 877.31 441.63C878.49 440.45 879.31 438.96 880.47 437.74C882.47 435.67 885.31 434.43 886.7 431.93C887.57 430.37 887.7 428.52 888.25 426.81C888.6 425.7 889.12 424.64 889.45 423.52C890.345 419.967 889.882 416.209 888.15 412.98C886.52 409.73 883.99 407.15 881.65 404.39Z" fill="#F86D70"/>
<path d="M515.43 162.06V497.47C504.242 493.869 492.553 492.067 480.8 492.13C430.93 492.13 390.43 527.42 390.43 577.29C390.43 627.16 430.93 662.06 480.8 662.06C530.67 662.06 571.42 625.34 571.42 572.06V339.14H834.42V497.47C823.232 493.869 811.543 492.066 799.79 492.13C749.92 492.13 709.42 527.42 709.42 577.29C709.42 627.16 749.92 662.06 799.79 662.06C849.66 662.06 890.41 625.34 890.41 572.06V162.06H515.43ZM834.43 287.06H571.43V218.06H834.43V287.06Z" fill="#B6426B"/>
<path d="M249.43 125.06V350.16C233.189 340.791 214.309 337.044 195.721 339.501C177.133 341.958 159.876 350.482 146.627 363.75C133.378 377.017 124.879 394.287 122.449 412.878C120.018 431.47 123.792 450.344 133.185 466.572C142.577 482.8 157.063 495.473 174.395 502.626C191.727 509.78 210.935 511.012 229.039 506.133C247.143 501.253 263.13 490.535 274.52 475.641C285.909 460.747 292.064 442.51 292.03 423.76V210.36H377.43V125.06H249.43Z" fill="#B6426B"/>
<path d="M226.6 652.62C221.698 649.983 216.42 648.114 210.95 647.08C214.92 646.533 218.837 645.653 222.66 644.45C232.83 641.23 237.96 636.91 234.11 634.8C230.26 632.69 218.89 633.58 208.72 636.8C205.288 637.792 202.008 639.249 198.97 641.13C197.92 638.9 195.06 636.31 190.6 633.86C181.6 628.86 169.42 626.39 163.48 628.27C157.54 630.15 160.05 635.69 169.09 640.66C173.493 643.035 178.205 644.789 183.09 645.87C179.842 646.248 176.62 646.819 173.44 647.58C162.37 650.24 155.97 654.25 159.14 656.58C162.31 658.91 173.87 658.58 184.94 655.94C188.966 655.074 192.864 653.696 196.54 651.84C197.45 654.14 200.36 656.84 205.06 659.45C214.06 664.45 226.24 666.92 232.18 665.04C238.12 663.16 235.6 657.58 226.6 652.62Z" fill="#B6426B"/>
<path d="M290.31 579.54C287.932 578.262 285.372 577.355 282.72 576.85C284.645 576.582 286.544 576.157 288.4 575.58C293.34 574.01 295.83 571.92 293.96 570.89C292.09 569.86 286.57 570.3 281.63 571.89C279.968 572.379 278.377 573.085 276.9 573.99C276.39 572.91 275 571.65 272.84 570.46C268.45 568.05 262.55 566.84 259.67 567.75C256.79 568.66 258.01 571.36 262.39 573.75C264.535 574.903 266.831 575.751 269.21 576.27C267.632 576.459 266.066 576.739 264.52 577.11C259.15 578.39 256.04 580.34 257.58 581.46C259.12 582.58 264.73 582.46 270.1 581.15C272.057 580.724 273.952 580.052 275.74 579.15C276.18 580.26 277.59 581.59 279.87 582.84C284.26 585.25 290.15 586.47 293.04 585.56C295.93 584.65 294.7 581.95 290.31 579.54Z" fill="#B6426B"/>
<path d="M118.92 505.45C117.422 504.649 115.81 504.083 114.14 503.77C115.355 503.609 116.553 503.341 117.72 502.97C120.81 501.97 122.37 500.68 121.2 500.04C120.03 499.4 116.58 499.67 113.49 500.65C112.436 500.951 111.427 501.391 110.49 501.96C109.877 500.994 108.994 500.229 107.95 499.76C105.21 498.25 101.52 497.49 99.71 498.06C97.9 498.63 98.71 500.31 101.42 501.82C102.762 502.544 104.2 503.076 105.69 503.4C104.7 503.517 103.718 503.694 102.75 503.93C99.39 504.73 97.44 505.93 98.4 506.65C99.36 507.37 102.88 507.26 106.24 506.46C107.464 506.193 108.65 505.773 109.77 505.21C110.363 506.235 111.266 507.044 112.35 507.52C115.1 509.03 118.79 509.79 120.59 509.22C122.39 508.65 121.66 506.96 118.92 505.45Z" fill="#B6426B"/>
<path opacity="0.1" d="M364.43 125.06V196.36H279.03V409.76C279.035 425.787 274.524 441.49 266.013 455.071C257.502 468.651 245.337 479.557 230.911 486.54C216.485 493.523 200.384 496.298 184.453 494.549C168.522 492.8 153.407 486.596 140.84 476.65C151.824 490.55 166.865 500.684 183.872 505.644C200.88 510.605 219.01 510.145 235.745 504.33C252.479 498.514 266.987 487.631 277.253 473.192C287.519 458.754 293.033 441.476 293.03 423.76V210.36H378.43V125.06H364.43Z" fill="black"/>
<g opacity="0.1">
<path opacity="0.1" d="M821.44 333.14H558.44V566.08C558.44 619.34 517.69 656.08 467.82 656.08C455.943 656.125 444.152 654.056 433 649.97C447.639 658.037 464.106 662.207 480.82 662.08C530.69 662.08 571.44 625.36 571.44 572.08V339.14H821.44V333.14Z" fill="black"/>
<path opacity="0.1" d="M558.42 281.05H571.42V218.04H821.44V212.04H558.42V281.05Z" fill="black"/>
<path opacity="0.1" d="M877.43 162.06V566.06C877.43 619.32 836.68 656.06 786.81 656.06C774.933 656.105 763.142 654.036 751.99 649.95C766.629 658.017 783.096 662.187 799.81 662.06C849.68 662.06 890.43 625.34 890.43 572.06V162.06H877.43Z" fill="black"/>
</g>
<path d="M579.83 69.89C586.28 83.22 596.83 98.38 608.76 92.59C620.69 86.8 629.6 62.24 623.15 48.89C616.7 35.54 601.76 29.47 589.8 35.26C577.84 41.05 573.37 56.58 579.83 69.89Z" fill="#B6426B"/>
<path d="M605.36 101.03C605.36 101.03 607.69 100.64 606.8 98.72C606.72 98.5495 606.626 98.3857 606.52 98.23C606.048 97.477 605.745 96.6311 605.63 95.75C605.488 94.7214 605.525 93.6759 605.74 92.66L599.39 92.24C599.39 92.24 601.86 94.34 601.57 95.44C601.527 95.5998 601.423 95.7363 601.28 95.82C601.156 95.9116 601.012 95.9732 600.86 96L600.38 96.14C598.71 96.73 599.38 97.57 599.38 97.57C599.6 100.31 605.36 101.03 605.36 101.03Z" fill="#B6426B"/>
<path d="M601.28 95.82L605.76 96.44C605.702 96.213 605.659 95.9825 605.63 95.75C604.49 95.7 602.7 95.55 601.57 95.44C601.527 95.5998 601.423 95.7363 601.28 95.82V95.82Z" fill="#444053"/>
<path d="M605.36 101.03C605.36 101.03 607.69 100.64 606.8 98.72C605.899 98.9332 604.965 98.9705 604.05 98.83C602.525 98.4412 601.21 97.4772 600.38 96.14C598.71 96.73 599.38 97.57 599.38 97.57C599.6 100.31 605.36 101.03 605.36 101.03Z" fill="#B6426B"/>
<path opacity="0.1" d="M605.36 101.03C605.36 101.03 607.69 100.64 606.8 98.72C605.899 98.9332 604.965 98.9705 604.05 98.83C602.525 98.4412 601.21 97.4772 600.38 96.14C598.71 96.73 599.38 97.57 599.38 97.57C599.6 100.31 605.36 101.03 605.36 101.03Z" fill="black"/>
<path opacity="0.1" d="M601.97 36.66C601.97 36.66 609.07 35.8 611.08 40.53C610.23 40.3868 609.358 40.4381 608.53 40.68C608.01 40.9162 607.441 41.0258 606.87 41C605.801 39.0196 604.065 37.482 601.97 36.66V36.66Z" fill="white"/>
<path d="M609.6 133.04C609.748 132.922 609.882 132.788 610 132.64C610.43 132.152 610.945 131.745 611.52 131.44C611.723 131.32 611.933 131.213 612.15 131.12C612.792 130.845 613.463 130.644 614.15 130.52C614.481 130.462 614.815 130.426 615.15 130.41L614.25 126.11V126.05L613.86 124.18C613.595 124.723 613.295 125.247 612.96 125.75C612.5 126.45 611.96 127.12 611.36 127.13C611.195 127.127 611.036 127.067 610.91 126.96C610.797 126.857 610.702 126.735 610.63 126.6C610.53 126.44 610.45 126.3 610.36 126.17C609.36 124.73 608.73 125.63 608.73 125.63C607.59 126.04 607.12 127.4 606.95 128.77C606.95 128.97 606.95 129.17 606.89 129.36C606.833 130.331 606.867 131.305 606.99 132.27C606.99 132.27 608.02 134.42 609.6 133.04Z" fill="#B6426B"/>
<path d="M611.6 131.44C611.803 131.32 612.013 131.213 612.23 131.12C612.01 130.19 611.74 128.79 611.55 127.69C611.55 127.61 611.55 127.54 611.55 127.46C611.55 127.38 611.55 127.23 611.49 127.13C611.325 127.127 611.166 127.067 611.04 126.96L611.14 127.63V127.9L611.6 131.44Z" fill="#444053"/>
<path d="M609.6 133.04C609.154 132.229 608.869 131.339 608.76 130.42C608.741 129.86 608.805 129.301 608.95 128.76C609 128.6 609.04 128.44 609.1 128.29C609.331 127.487 609.765 126.757 610.36 126.17C609.36 124.73 608.73 125.63 608.73 125.63C607.59 126.04 607.12 127.4 606.95 128.77C606.95 128.97 606.95 129.17 606.89 129.36C606.833 130.331 606.867 131.305 606.99 132.27C606.99 132.27 608.02 134.42 609.6 133.04Z" fill="#B6426B"/>
<path opacity="0.1" d="M609.6 133.04C609.154 132.229 608.869 131.339 608.76 130.42C608.741 129.86 608.805 129.301 608.95 128.76C609 128.6 609.04 128.44 609.1 128.29C609.331 127.487 609.765 126.757 610.36 126.17C609.36 124.73 608.73 125.63 608.73 125.63C607.59 126.04 607.12 127.4 606.95 128.77C606.95 128.97 606.95 129.17 606.89 129.36C606.833 130.331 606.867 131.305 606.99 132.27C606.99 132.27 608.02 134.42 609.6 133.04Z" fill="black"/>
<path d="M566.35 91.89C571.75 95.36 577.98 98.72 583.9 100.5C588.45 101.88 592.81 102.32 596.46 101.16C598.041 100.657 599.494 99.8174 600.72 98.7C601.551 97.9498 602.275 97.0883 602.87 96.14C607.1 89.53 607.02 77.91 603.67 67.85C601.33 60.85 597.45 54.65 592.34 51.37C579.88 43.37 563.96 45.97 556.78 57.16C549.6 68.35 553.89 83.89 566.35 91.89Z" fill="#B6426B"/>
<path opacity="0.1" d="M566.35 91.89C571.75 95.36 577.98 98.72 583.9 100.5C588.45 101.88 592.81 102.32 596.46 101.16C598.041 100.657 599.494 99.8174 600.72 98.7C601.551 97.9498 602.275 97.0883 602.87 96.14C607.1 89.53 607.02 77.91 603.67 67.85C601.33 60.85 597.45 54.65 592.34 51.37C579.88 43.37 563.96 45.97 556.78 57.16C549.6 68.35 553.89 83.89 566.35 91.89Z" fill="black"/>
<path d="M597.51 105.3C599.1 107.52 604.37 105.14 604.37 105.14C604.37 105.14 606.16 103.6 604.37 102.43C604.213 102.326 604.049 102.232 603.88 102.15C603.288 101.87 602.75 101.487 602.29 101.02C602.13 100.86 601.97 100.69 601.82 100.51C601.382 99.9638 601.006 99.3701 600.7 98.74C600.549 98.4392 600.419 98.1285 600.31 97.81L594.67 100.81C595.269 100.911 595.861 101.055 596.44 101.24C597.25 101.5 598.05 101.88 598.2 102.4C598.263 102.554 598.263 102.726 598.2 102.88C598.135 103.02 598.043 103.145 597.93 103.25C597.814 103.368 597.704 103.491 597.6 103.62C596.46 104.95 597.51 105.3 597.51 105.3Z" fill="#B6426B"/>
<path d="M598.18 102.89L602.31 101.07C602.15 100.91 601.99 100.74 601.84 100.56C600.84 101.1 599.25 101.91 598.22 102.41C598.271 102.569 598.256 102.742 598.18 102.89V102.89Z" fill="#444053"/>
<path d="M597.51 105.3C599.1 107.52 604.37 105.14 604.37 105.14C604.37 105.14 606.16 103.6 604.37 102.43C603.716 103.085 602.937 103.602 602.08 103.95C600.582 104.413 598.963 104.281 597.56 103.58C596.46 104.95 597.51 105.3 597.51 105.3Z" fill="#B6426B"/>
<path opacity="0.1" d="M597.51 105.3C599.1 107.52 604.37 105.14 604.37 105.14C604.37 105.14 606.16 103.6 604.37 102.43C603.716 103.085 602.937 103.602 602.08 103.95C600.582 104.413 598.963 104.281 597.56 103.58C596.46 104.95 597.51 105.3 597.51 105.3Z" fill="black"/>
<path opacity="0.1" d="M567.88 52.01C567.88 52.01 573.49 47.58 577.67 50.56C576.873 50.8844 576.159 51.3833 575.58 52.02C575.256 52.4943 574.824 52.885 574.32 53.16C572.376 52.0288 570.095 51.6214 567.88 52.01Z" fill="white"/>
<g opacity="0.1">
<path opacity="0.1" d="M628.16 98.66L626.86 92.43C626.6 92.9752 626.299 93.5001 625.96 94C626.002 95.6624 626.412 97.2948 627.16 98.78C627.49 98.716 627.824 98.6759 628.16 98.66V98.66Z" fill="black"/>
<path opacity="0.1" d="M622.6 101.3C622.746 101.18 622.88 101.046 623 100.9C623.432 100.411 623.947 100.002 624.52 99.69C624.723 99.5695 624.933 99.4626 625.15 99.37C625.79 99.0927 626.462 98.8945 627.15 98.78C627.48 98.716 627.814 98.6759 628.15 98.66L626.85 92.43C626.59 92.9752 626.289 93.5001 625.95 94C625.49 94.7 624.9 95.38 624.35 95.39C624.187 95.3808 624.032 95.3174 623.91 95.21C623.788 95.1231 623.683 95.0146 623.6 94.89C623.51 94.73 623.42 94.59 623.34 94.46C622.34 93.02 621.7 93.93 621.7 93.93C619.13 94.86 619.96 100.57 619.96 100.57C619.96 100.57 620.99 102.67 622.6 101.3Z" fill="black"/>
<path opacity="0.1" d="M624.52 99.69C624.723 99.5695 624.933 99.4626 625.15 99.37C624.89 98.28 624.57 96.51 624.36 95.37C624.197 95.3608 624.042 95.2974 623.92 95.19L624.52 99.69Z" fill="black"/>
<path opacity="0.1" d="M622.6 101.3C622.156 100.484 621.871 99.592 621.76 98.67C621.733 97.0996 622.31 95.5786 623.37 94.42C622.37 92.98 621.73 93.89 621.73 93.89C619.16 94.82 619.99 100.53 619.99 100.53C619.99 100.53 620.99 102.67 622.6 101.3Z" fill="black"/>
<path opacity="0.1" d="M622.6 101.3C622.156 100.484 621.871 99.592 621.76 98.67C621.733 97.0996 622.31 95.5786 623.37 94.42C622.37 92.98 621.73 93.89 621.73 93.89C619.16 94.82 619.99 100.53 619.99 100.53C619.99 100.53 620.99 102.67 622.6 101.3Z" fill="black"/>
</g>
<path d="M621.78 100.06C621.928 99.9422 622.062 99.808 622.18 99.66C622.613 99.1746 623.127 98.7685 623.7 98.46C623.903 98.3395 624.113 98.2326 624.33 98.14C624.97 97.8627 625.642 97.6645 626.33 97.55C626.66 97.4861 626.994 97.4459 627.33 97.43L626.03 91.2C625.768 91.744 625.467 92.2687 625.13 92.77C624.67 93.47 624.13 94.15 623.53 94.15C623.367 94.1495 623.211 94.0889 623.09 93.98C622.974 93.8772 622.876 93.7555 622.8 93.62C622.71 93.46 622.62 93.32 622.54 93.19C621.54 91.75 620.9 92.65 620.9 92.65C618.33 93.59 619.16 99.3 619.16 99.3C619.16 99.3 620.17 101.44 621.78 100.06Z" fill="#B6426B"/>
<path d="M623.7 98.46C623.903 98.3395 624.113 98.2326 624.33 98.14C624.07 97.05 623.75 95.28 623.54 94.14C623.377 94.1395 623.221 94.0789 623.1 93.97L623.7 98.46Z" fill="#444053"/>
<path d="M621.78 100.06C621.334 99.2487 621.049 98.3592 620.94 97.44C620.927 95.8627 621.521 94.3409 622.6 93.19C621.6 91.75 620.96 92.65 620.96 92.65C618.39 93.59 619.22 99.3 619.22 99.3C619.22 99.3 620.17 101.44 621.78 100.06Z" fill="#B6426B"/>
<path opacity="0.1" d="M621.78 100.06C621.334 99.2487 621.049 98.3592 620.94 97.44C620.927 95.8627 621.521 94.3409 622.6 93.19C621.6 91.75 620.96 92.65 620.96 92.65C618.39 93.59 619.22 99.3 619.22 99.3C619.22 99.3 620.17 101.44 621.78 100.06Z" fill="black"/>
<g opacity="0.1">
<path opacity="0.1" d="M616.6 81.89C617.997 82.7896 619.574 83.3732 621.22 83.6C621.355 83.291 621.509 82.9905 621.68 82.7L615.8 80.26C616.107 80.7824 616.375 81.3273 616.6 81.89V81.89Z" fill="black"/>
<path opacity="0.1" d="M618.6 90.52C618.6 90.52 620.93 90.91 620.71 88.8C620.69 88.6105 620.653 88.4231 620.6 88.24C620.44 87.6099 620.393 86.9566 620.46 86.31C620.478 86.0747 620.511 85.8409 620.56 85.61C620.769 84.5937 621.14 83.6178 621.66 82.72L615.78 80.28C616.093 80.7953 616.367 81.3335 616.6 81.89C616.92 82.67 617.14 83.54 616.84 83.99C616.743 84.1252 616.601 84.2211 616.44 84.26C616.292 84.2922 616.138 84.2922 615.99 84.26H615.48C613.72 84.26 614.12 85.26 614.12 85.26C613.39 87.99 618.6 90.52 618.6 90.52Z" fill="black"/>
<path opacity="0.1" d="M616.4 84.28L620.4 86.28C620.418 86.0447 620.451 85.8109 620.5 85.58C619.44 85.17 617.8 84.44 616.76 83.98C616.679 84.1189 616.551 84.2251 616.4 84.28V84.28Z" fill="black"/>
<path opacity="0.1" d="M618.6 90.52C618.6 90.52 620.93 90.91 620.71 88.8C619.788 88.7122 618.892 88.4474 618.07 88.02C616.756 87.1556 615.822 85.821 615.46 84.29C613.7 84.29 614.1 85.29 614.1 85.29C613.39 87.99 618.6 90.52 618.6 90.52Z" fill="black"/>
<path opacity="0.1" d="M618.6 90.52C618.6 90.52 620.93 90.91 620.71 88.8C619.788 88.7122 618.892 88.4474 618.07 88.02C616.756 87.1556 615.822 85.821 615.46 84.29C613.7 84.29 614.1 85.29 614.1 85.29C613.39 87.99 618.6 90.52 618.6 90.52Z" fill="black"/>
</g>
<path d="M618.17 89.89C618.17 89.89 620.5 90.28 620.28 88.18C620.261 87.9903 620.224 87.8029 620.17 87.62C620.01 86.9865 619.963 86.3299 620.03 85.68C620.048 85.448 620.081 85.2175 620.13 84.99C620.256 84.2986 620.471 83.6264 620.77 82.99C620.905 82.681 621.059 82.3805 621.23 82.09L615.35 79.64C615.657 80.1624 615.925 80.7073 616.15 81.27C616.47 82.06 616.69 82.92 616.39 83.38C616.29 83.5096 616.149 83.6013 615.99 83.64C615.841 83.6677 615.689 83.6677 615.54 83.64H615.03C613.27 83.64 613.67 84.64 613.67 84.64C612.98 87.37 618.17 89.89 618.17 89.89Z" fill="#B6426B"/>
<path d="M615.99 83.66L619.99 85.66C620.008 85.428 620.041 85.1975 620.09 84.97C619.03 84.56 617.39 83.83 616.35 83.37C616.265 83.5036 616.139 83.6055 615.99 83.66Z" fill="#444053"/>
<path d="M618.17 89.89C618.17 89.89 620.5 90.28 620.28 88.18C619.358 88.0833 618.463 87.8154 617.64 87.39C616.326 86.5294 615.392 85.1981 615.03 83.67C613.27 83.67 613.67 84.67 613.67 84.67C612.98 87.37 618.17 89.89 618.17 89.89Z" fill="#B6426B"/>
<path opacity="0.1" d="M618.17 89.89C618.17 89.89 620.5 90.28 620.28 88.18C619.358 88.0833 618.463 87.8154 617.64 87.39C616.326 86.5294 615.392 85.1981 615.03 83.67C613.27 83.67 613.67 84.67 613.67 84.67C612.98 87.37 618.17 89.89 618.17 89.89Z" fill="black"/>
<path d="M595.09 117.28C595.355 116.739 595.659 116.217 596 115.72C596.48 115.02 597.07 114.35 597.61 114.35C597.693 114.349 597.776 114.364 597.853 114.395C597.93 114.426 598.001 114.472 598.06 114.53C598.173 114.63 598.268 114.748 598.34 114.88C598.43 115.05 598.52 115.19 598.6 115.32C599.6 116.78 600.24 115.87 600.24 115.87C602.82 114.97 602.04 109.24 602.04 109.24C602.04 109.24 601.04 107.09 599.44 108.45C599.294 108.569 599.156 108.7 599.03 108.84C598.423 109.488 597.687 110.002 596.87 110.35C596.228 110.617 595.556 110.808 594.87 110.92C594.54 110.983 594.206 111.02 593.87 111.03L595.09 117.28Z" fill="#B6426B"/>
<path d="M597.6 114.35C597.683 114.349 597.766 114.364 597.843 114.395C597.92 114.426 597.991 114.472 598.05 114.53L597.49 110.04C597.287 110.157 597.077 110.261 596.86 110.35C597.12 111.45 597.42 113.22 597.6 114.35Z" fill="#444053"/>
<path d="M598.6 115.32C599.6 116.78 600.24 115.87 600.24 115.87C602.82 114.97 602.04 109.24 602.04 109.24C602.04 109.24 601.04 107.09 599.44 108.45C599.878 109.265 600.15 110.159 600.24 111.08C600.264 112.653 599.676 114.173 598.6 115.32V115.32Z" fill="#B6426B"/>
<path opacity="0.1" d="M598.6 115.32C599.6 116.78 600.24 115.87 600.24 115.87C602.82 114.97 602.04 109.24 602.04 109.24C602.04 109.24 601.04 107.09 599.44 108.45C599.878 109.265 600.15 110.159 600.24 111.08C600.264 112.653 599.676 114.173 598.6 115.32V115.32Z" fill="black"/>
<path opacity="0.1" d="M592.96 125.7C594.848 122.7 595.885 119.244 595.96 115.7C596.44 115 597.03 114.33 597.57 114.33C597.653 114.329 597.736 114.344 597.813 114.375C597.89 114.406 597.961 114.452 598.02 114.51C598.133 114.61 598.228 114.728 598.3 114.86C598.39 115.03 598.48 115.17 598.56 115.3C599.56 116.76 600.2 115.85 600.2 115.85C602.78 114.95 602 109.22 602 109.22C602 109.22 601 107.07 599.4 108.43C599.253 108.549 599.116 108.68 598.99 108.82C598.383 109.468 597.647 109.982 596.83 110.33C596.188 110.597 595.516 110.788 594.83 110.9C594.331 109.9 593.71 108.966 592.98 108.12C590.519 105.488 587.469 103.476 584.08 102.25C585.48 111.12 588.09 120.46 592.96 125.7Z" fill="black"/>
<path opacity="0.1" d="M606.99 128.77C607.716 128.656 608.434 128.495 609.14 128.29C609.788 128.104 610.426 127.884 611.05 127.63L611.46 127.46C611.99 127.23 612.53 126.98 613.07 126.7C613.61 126.42 613.88 126.28 614.29 126.05C621.9 121.66 629.29 112.83 632.59 103.87C633.527 101.422 634.129 98.859 634.38 96.25C634.501 94.8682 634.48 93.4777 634.32 92.1C633.854 88.1495 632.588 84.3353 630.6 80.89C630.38 80.52 630.17 80.17 629.94 79.83C624.94 72.11 616.53 67.45 607.59 68.39C609.53 74 612.29 78.78 616.18 81.27C616.5 82.06 616.72 82.92 616.42 83.38C616.32 83.5096 616.179 83.6013 616.02 83.64C615.871 83.6677 615.719 83.6677 615.57 83.64H615.06C613.3 83.64 613.7 84.64 613.7 84.64C613.01 87.29 618.2 89.82 618.2 89.82C618.2 89.82 620.53 90.21 620.31 88.11C620.291 87.9203 620.254 87.7328 620.2 87.55C620.04 86.9165 619.993 86.2599 620.06 85.61C620.078 85.378 620.111 85.1475 620.16 84.92C620.286 84.2286 620.502 83.5564 620.8 82.92C621.909 83.0653 623.031 83.0653 624.14 82.92C625.708 82.7119 627.242 82.2948 628.7 81.68C628.49 82.01 628.3 82.34 628.12 82.68C626.235 85.6812 625.198 89.1369 625.12 92.68C624.66 93.38 624.12 94.06 623.52 94.06C623.357 94.0595 623.201 93.9989 623.08 93.89C622.964 93.7872 622.866 93.6654 622.79 93.53C622.7 93.37 622.61 93.23 622.53 93.1C621.53 91.66 620.89 92.56 620.89 92.56C618.32 93.5 619.15 99.21 619.15 99.21C619.15 99.21 620.15 101.35 621.76 99.97C621.908 99.8522 622.042 99.718 622.16 99.57C622.593 99.0846 623.107 98.6785 623.68 98.37C623.883 98.2495 624.093 98.1426 624.31 98.05C624.95 97.7727 625.622 97.5745 626.31 97.46C626.809 98.4614 627.438 99.3928 628.18 100.23L628.58 100.66L628.44 100.79C625.23 103.689 622.263 106.846 619.57 110.23C618.76 111.23 617.98 112.33 617.29 113.41C616.797 114.163 616.337 114.913 615.91 115.66C614.049 118.668 613.033 122.123 612.97 125.66C612.51 126.36 611.97 127.03 611.37 127.04C611.205 127.037 611.046 126.977 610.92 126.87C610.807 126.767 610.712 126.645 610.64 126.51C610.54 126.35 610.46 126.21 610.37 126.08C609.37 124.64 608.74 125.54 608.74 125.54C607.6 126.04 607.16 127.4 606.99 128.77Z" fill="black"/>
<g opacity="0.1">
<path opacity="0.1" d="M618.38 78.75C618.914 78.9593 619.49 79.0382 620.06 78.98C620.92 79.0222 621.76 79.2544 622.52 79.66C622.14 74.54 615.14 73.06 615.14 73.06C616.86 74.5128 618.008 76.5293 618.38 78.75V78.75Z" fill="black"/>
<path opacity="0.1" d="M583.46 97.39C583.59 98.39 583.73 99.48 583.9 100.54C588.45 101.92 592.81 102.36 596.46 101.2C597.27 101.46 598.07 101.84 598.22 102.36C598.283 102.514 598.283 102.686 598.22 102.84C598.155 102.98 598.063 103.105 597.95 103.21C597.834 103.328 597.724 103.451 597.62 103.58C596.5 104.95 597.55 105.3 597.55 105.3C599.14 107.52 604.41 105.14 604.41 105.14C604.41 105.14 606.2 103.6 604.41 102.43C604.253 102.326 604.089 102.232 603.92 102.15C603.328 101.87 602.79 101.487 602.33 101.02C602.17 100.86 602.01 100.69 601.86 100.51C601.422 99.9638 601.046 99.3701 600.74 98.74C601.571 97.9898 602.295 97.1283 602.89 96.18C607.12 89.57 607.04 77.95 603.69 67.89C590.69 69.73 581.67 82.89 583.46 97.39Z" fill="black"/>
<path opacity="0.1" d="M595.6 126.46C596.992 127.366 598.566 127.956 600.21 128.19C600.345 127.879 600.503 127.579 600.68 127.29L594.78 124.89C595.086 125.395 595.36 125.92 595.6 126.46V126.46Z" fill="black"/>
<path opacity="0.1" d="M597.6 135.08C597.6 135.08 599.94 135.48 599.71 133.37C599.694 133.181 599.661 132.993 599.61 132.81C599.451 132.176 599.403 131.52 599.47 130.87C599.484 130.638 599.514 130.408 599.56 130.18C599.695 129.491 599.909 128.819 600.2 128.18C600.336 127.869 600.493 127.569 600.67 127.28L594.78 124.89C595.082 125.412 595.349 125.953 595.58 126.51C595.89 127.3 596.11 128.17 595.81 128.62C595.718 128.755 595.579 128.851 595.42 128.89C595.268 128.917 595.112 128.917 594.96 128.89C594.793 128.881 594.627 128.881 594.46 128.89C592.69 128.89 593.09 129.89 593.09 129.89C592.41 132.56 597.6 135.08 597.6 135.08Z" fill="black"/>
<path opacity="0.1" d="M595.42 128.89L599.42 130.89C599.42 130.65 599.45 130.42 599.51 130.2C598.46 129.79 596.81 129.06 595.77 128.6C595.691 128.735 595.567 128.837 595.42 128.89V128.89Z" fill="black"/>
<path opacity="0.1" d="M597.6 135.08C597.6 135.08 599.93 135.47 599.71 133.36C598.788 133.275 597.891 133.01 597.07 132.58C595.753 131.722 594.818 130.39 594.46 128.86C592.69 128.86 593.09 129.86 593.09 129.86C592.4 132.56 597.6 135.08 597.6 135.08Z" fill="black"/>
<path opacity="0.1" d="M597.6 135.08C597.6 135.08 599.93 135.47 599.71 133.36C598.788 133.275 597.891 133.01 597.07 132.58C595.753 131.722 594.818 130.39 594.46 128.86C592.69 128.86 593.09 129.86 593.09 129.86C592.4 132.56 597.6 135.08 597.6 135.08Z" fill="black"/>
<path opacity="0.1" d="M618.38 78.75C618.914 78.9593 619.49 79.0382 620.06 78.98C620.92 79.0222 621.76 79.2544 622.52 79.66C622.14 74.54 615.14 73.06 615.14 73.06C616.86 74.5128 618.008 76.5293 618.38 78.75V78.75Z" fill="black"/>
</g>
<path d="M584.9 98.21C586.71 112.91 591.78 130.65 604.97 129.02C618.16 127.39 634.49 107.02 632.68 92.31C630.87 77.6 618.68 67.03 605.5 68.66C592.32 70.29 583.08 83.52 584.9 98.21Z" fill="#B6426B"/>
<path d="M599.03 135.89C599.03 135.89 601.36 136.29 601.14 134.18C601.119 133.991 601.085 133.804 601.04 133.62C600.872 132.988 600.821 132.33 600.89 131.68C600.89 131.45 600.95 131.21 600.99 130.99C601.19 129.97 601.566 128.992 602.1 128.1L596.22 125.65C596.22 125.65 597.88 128.44 597.22 129.39C597.124 129.525 596.981 129.621 596.82 129.66C596.671 129.682 596.519 129.682 596.37 129.66H595.87C594.1 129.66 594.5 130.66 594.5 130.66C593.84 133.38 599.03 135.89 599.03 135.89Z" fill="#B6426B"/>
<path d="M596.85 129.67L600.85 131.67C600.85 131.44 600.91 131.2 600.95 130.98C599.89 130.57 598.25 129.84 597.21 129.38C597.127 129.515 597 129.618 596.85 129.67V129.67Z" fill="#444053"/>
<path d="M599.03 135.89C599.03 135.89 601.36 136.29 601.14 134.18C600.216 134.094 599.319 133.826 598.5 133.39C597.184 132.534 596.252 131.2 595.9 129.67C594.13 129.67 594.53 130.67 594.53 130.67C593.84 133.38 599.03 135.89 599.03 135.89Z" fill="#B6426B"/>
<path opacity="0.1" d="M599.03 135.89C599.03 135.89 601.36 136.29 601.14 134.18C600.216 134.094 599.319 133.826 598.5 133.39C597.184 132.534 596.252 131.2 595.9 129.67C594.13 129.67 594.53 130.67 594.53 130.67C593.84 133.38 599.03 135.89 599.03 135.89Z" fill="black"/>
<path opacity="0.1" d="M616.6 73.89C616.6 73.89 623.6 75.37 623.98 80.49C623.218 80.0836 622.373 79.8546 621.51 79.82C620.942 79.8719 620.37 79.7897 619.84 79.58C619.463 77.3614 618.315 75.3467 616.6 73.89V73.89Z" fill="white"/>
<path d="M599.39 130.99C600.002 131.041 600.596 131.223 601.131 131.525C601.666 131.827 602.129 132.241 602.489 132.739C602.849 133.237 603.098 133.806 603.217 134.409C603.336 135.011 603.323 135.633 603.18 136.23C602.3 139.18 598.68 140.11 596.32 142.08C593.96 144.05 592.83 147.2 592.54 150.27C592.29 153.177 592.677 156.104 593.673 158.846C594.67 161.589 596.252 164.081 598.31 166.15C600.43 168.24 602.99 169.84 605.08 171.96C607.48 174.613 609.453 177.622 610.93 180.88C612.265 183.191 613.144 185.737 613.52 188.38C613.87 192.59 611.75 196.62 609.22 200C606.69 203.38 603.66 206.44 601.7 210.18C600.373 212.747 599.579 215.557 599.368 218.439C599.157 221.321 599.531 224.217 600.47 226.95C600.584 227.388 600.832 227.78 601.18 228.07C601.27 228.137 601.374 228.184 601.483 228.207C601.593 228.231 601.707 228.231 601.817 228.207C601.926 228.184 602.03 228.137 602.12 228.07C602.21 228.003 602.285 227.918 602.34 227.82" stroke="#444053" stroke-miterlimit="10"/>
<path d="M611.68 130.25C611.987 130.597 612.164 131.041 612.18 131.504C612.197 131.967 612.052 132.422 611.77 132.79C611.475 133.15 611.102 133.439 610.679 133.634C610.257 133.83 609.796 133.928 609.33 133.92C608.2 133.92 606.94 133.57 606.01 134.23C605.697 134.499 605.446 134.832 605.273 135.206C605.101 135.58 605.011 135.988 605.01 136.4C605.018 137.223 604.934 138.045 604.76 138.85C604.53 139.507 604.161 140.107 603.68 140.61C603.135 141.245 602.451 141.744 601.68 142.07C600.01 142.72 598.08 142.13 596.37 142.67C594.12 143.38 592.91 145.81 592.23 148.07C591.302 150.766 591.132 153.665 591.74 156.45C592.329 158.233 593.089 159.954 594.01 161.59C594.929 163.231 595.437 165.07 595.49 166.95C595.5 167.891 595.239 168.816 594.739 169.613C594.239 170.411 593.521 171.048 592.67 171.45" stroke="#444053" stroke-miterlimit="10"/>
<g opacity="0.05">
<path opacity="0.05" d="M521.23 491.08C521.648 490.84 522.006 490.508 522.278 490.11C522.55 489.711 522.728 489.257 522.8 488.78L522.96 489.08C522.96 489.08 524.33 492.85 521.65 494.4L520.78 494.93C520.3 494.82 519.78 494.73 519.29 494.59C517.09 493.95 518.6 492.63 521.23 491.08Z" fill="black"/>
<path opacity="0.05" d="M500.33 489.17C499.9 488.74 499.96 487.68 500.28 486.33C500.893 487.569 501.16 488.952 501.05 490.33C500.895 489.897 500.649 489.501 500.33 489.17V489.17Z" fill="black"/>
<path opacity="0.05" d="M505.47 420.74C506.008 422.389 506.311 424.106 506.37 425.84C506.103 424.632 505.728 423.451 505.25 422.31C505.25 422.31 505.33 421.7 505.47 420.74Z" fill="black"/>
<path opacity="0.05" d="M468.53 412.07C468.441 411.572 468.411 411.065 468.44 410.56C468.6 411.56 468.71 412.56 468.78 413.4C468.71 412.96 468.6 412.52 468.53 412.07Z" fill="black"/>
<path opacity="0.05" d="M503.98 469.72C503.701 468.719 503.599 467.676 503.68 466.64C504.145 467.886 504.366 469.21 504.33 470.54C504.245 470.254 504.128 469.979 503.98 469.72V469.72Z" fill="black"/>
<path opacity="0.05" d="M499.6 495.57C500.356 498.366 500.885 501.219 501.18 504.1L517.76 506.67C519.352 504.537 520.694 502.229 521.76 499.79C521.97 499.35 522.14 498.95 522.28 498.59C523.28 499.09 523.61 500.14 522.18 503.11C521.115 505.552 519.773 507.864 518.18 510L501.6 507.43C501.6 507.43 500.69 498.7 499.1 496.98C498.28 496.14 498.82 495.75 499.6 495.57Z" fill="black"/>
<path opacity="0.05" d="M522.52 471.68C522.52 471.68 522.02 481.18 520.62 481.68C519.99 480.08 519.62 478.57 520.21 478.35C521.61 477.85 522.11 468.35 522.11 468.35C522.11 468.35 525.3 457.16 524.73 454.1C524.16 451.04 527.33 443.86 527.33 443.86L528.63 435.22C531.768 430.41 533.067 424.63 532.29 418.94L532.8 405.58C532.8 405.58 537.66 379.83 538.71 366.77C539.39 358.4 539.71 346.96 539.89 339.82C539.89 338.53 539.94 337.38 539.95 336.41L540.43 336.48C540.43 336.48 540.43 339.14 540.31 343.14C540.15 350.28 539.81 361.73 539.14 370.09C538.08 383.16 533.23 408.91 533.23 408.91L532.71 422.27C533.488 427.957 532.188 433.734 529.05 438.54L527.75 447.18C527.75 447.18 524.58 454.37 525.15 457.43C525.72 460.49 522.52 471.68 522.52 471.68Z" fill="black"/>
<path opacity="0.05" d="M472.28 501.2C473.707 499.289 474.694 497.087 475.17 494.75C476.81 496.35 474.62 502.24 472.7 504.52C470.78 506.8 456.29 507.89 453.7 503.24L453.8 500.62C457.4 504.45 470.36 503.47 472.28 501.2Z" fill="black"/>
<path opacity="0.05" d="M451.94 484.82C452.644 486.173 453.236 487.581 453.71 489.03L453.63 490.96C453.35 490.25 452.94 489.29 452.36 488.15C451.962 487.053 451.802 485.884 451.89 484.72L451.94 484.82Z" fill="black"/>
<path opacity="0.05" d="M471.95 487.77C471.465 486.689 471.054 485.577 470.72 484.44C470.72 484.44 473.04 485.08 476.92 480.82C479.76 477.72 480.14 471.67 479.92 467.69C480.52 470.06 481.25 479.88 477.36 484.15C474.8 486.94 472.94 487.62 471.95 487.77Z" fill="black"/>
<path opacity="0.05" d="M480.31 457.5C479.96 460.203 479.763 462.924 479.72 465.65C479.64 465.12 479.56 464.65 479.48 464.36C478.88 462 479.88 454.17 479.88 454.17C479.88 454.17 479.96 448.66 481.13 446.91C482.3 445.16 485.03 435.06 485.03 435.06C485.03 435.06 485.16 431.61 487.16 429.9C489.16 428.19 490.67 421.2 490.67 421.2C491.863 419.486 492.428 417.413 492.27 415.33C491.99 411.87 494.89 408.26 494.89 408.26L500.15 393.56L504.98 382.56L507.21 389.13C507.21 389.13 507.21 389.95 507.21 391.23L505.41 385.89L500.6 396.89L495.35 411.59C495.35 411.59 492.45 415.2 492.73 418.66C492.891 420.744 492.322 422.82 491.12 424.53C491.12 424.53 489.61 431.53 487.62 433.22C485.63 434.91 485.49 438.38 485.49 438.38C485.49 438.38 482.75 448.49 481.58 450.23C480.41 451.97 480.31 457.5 480.31 457.5Z" fill="black"/>
</g>
<g opacity="0.1">
<path opacity="0.1" d="M501.51 220.89C502.102 221.59 502.857 222.133 503.71 222.47C508.26 224.57 513.47 224.55 518.48 224.47C519.015 224.491 519.548 224.392 520.04 224.18C520.757 223.659 521.244 222.882 521.4 222.01C522.51 218.52 523.53 215.33 525.95 212.48C526.421 211.819 527.101 211.337 527.88 211.11C528.609 211.068 529.339 211.166 530.03 211.4C530.371 211.506 530.733 211.525 531.083 211.453C531.433 211.381 531.759 211.222 532.03 210.99C532.335 210.574 532.484 210.064 532.45 209.55C532.45 208.08 532.24 206.41 533.2 205.3C533.74 204.67 534.57 204.36 535.13 203.75C535.492 203.296 535.725 202.752 535.802 202.176C535.88 201.6 535.799 201.014 535.57 200.48C536.39 201.9 536.71 203.7 535.64 204.87C535.08 205.48 534.25 205.8 533.71 206.42C532.71 207.53 532.99 209.2 532.96 210.68C532.994 211.194 532.845 211.704 532.54 212.12C532.267 212.349 531.94 212.505 531.591 212.575C531.242 212.645 530.88 212.626 530.54 212.52C529.848 212.287 529.119 212.189 528.39 212.23C527.611 212.457 526.931 212.939 526.46 213.6C524.04 216.45 523.01 219.6 521.91 223.14C521.751 224.008 521.264 224.782 520.55 225.3C520.061 225.521 519.526 225.621 518.99 225.59C513.99 225.71 508.77 225.73 504.22 223.59C503.367 223.253 502.612 222.71 502.02 222.01C501.725 221.601 501.502 221.144 501.36 220.66L501.51 220.89Z" fill="black"/>
<path opacity="0.1" d="M534.33 198.24C534.116 197.992 533.956 197.703 533.86 197.39C533.796 197.036 533.796 196.674 533.86 196.32C534.081 194.304 533.897 192.264 533.32 190.32L533.41 190.22C534.303 192.505 534.629 194.972 534.36 197.41C534.328 197.685 534.318 197.963 534.33 198.24Z" fill="black"/>
</g>
</g>
<defs>
<clipPath id="clip0">
<rect width="1099.2" height="725.77" fill="white"/>
</clipPath>
</defs>
</svg>
